<svg width="260" height="44" viewBox="0 0 260 44" fill="none" xmlns="http://www.w3.org/2000/svg">
<rect width="49" height="44" rx="2" fill="#0094FF"/>
<path d="M26.3701 6.21008H22.4671C21.0166 6.21008 19.8408 7.3859 19.8408 8.83635V34.4161C19.8408 35.8666 21.0166 37.0424 22.4671 37.0424H26.3701C27.8206 37.0424 28.9964 35.8666 28.9964 34.4161V8.83635C28.9964 7.3859 27.8206 6.21008 26.3701 6.21008Z" fill="white"/>
<path d="M9 19.6687V23.5798C9 25.028 10.174 26.202 11.6222 26.202H37.2101C38.6583 26.202 39.8323 25.028 39.8323 23.5798V19.6687C39.8323 18.2205 38.6583 17.0465 37.2101 17.0465H11.6222C10.174 17.0465 9 18.2205 9 19.6687Z" fill="white"/>
<path d="M29.7156 23.9757C23.8934 30.7757 16.5964 34.0767 13.4166 31.3535C13.2248 31.194 13.0514 31.0138 12.8994 30.8161C16.3338 32.7151 23.1136 29.4141 28.5883 23.0181C34.0631 16.6221 36.2934 9.41003 33.8853 6.31104C34.1022 6.43185 34.3066 6.57397 34.4954 6.73528C37.6792 9.45851 35.5257 17.1757 29.7156 23.9757Z" fill="white"/>
<path d="M29.3432 23.6646C23.5251 30.4646 16.2281 33.7657 13.0442 31.0424C12.8564 30.8815 12.6857 30.7014 12.5352 30.5051C15.9695 32.404 22.7493 29.103 28.2281 22.7071C33.7069 16.3111 35.9291 9.09899 33.5049 6C33.7215 6.11346 33.9259 6.24885 34.115 6.40404C37.3069 9.14747 35.1655 16.8687 29.3432 23.6646Z" fill="#0094FF"/>
<path d="M56.4683 28.2323V15.1293H58.457L63.1034 23.6974L67.7313 15.1293H69.6828V28.2323H67.5269V19.404L63.7725 26.2436H62.3786L58.6242 19.4412V28.2323H56.4683ZM72.5667 28.2323V15.1293H81.2835V17.025H74.8527V20.6307H80.8746V22.5264H74.8527V26.3365H81.2835V28.2323H72.5667ZM83.6565 28.2323V15.1293H88.526C90.7191 15.1293 92.4104 15.693 93.5999 16.8206C94.8018 17.9481 95.4028 19.5651 95.4028 21.6715C95.4028 23.7655 94.8018 25.3825 93.5999 26.5224C92.4104 27.6623 90.7191 28.2323 88.526 28.2323H83.6565ZM86.0355 26.2622H88.3773C91.4006 26.2622 92.9122 24.732 92.9122 21.6715C92.9122 18.6234 91.4006 17.0994 88.3773 17.0994H86.0355V26.2622ZM97.8137 28.2323V15.1293H100.193V28.2323H97.8137ZM109.137 28.4182C107.774 28.4182 106.603 28.1456 105.624 27.6004C104.658 27.0428 103.914 26.2622 103.394 25.2586C102.874 24.2425 102.613 23.0468 102.613 21.6715C102.613 20.2961 102.874 19.1066 103.394 18.103C103.914 17.0994 104.658 16.325 105.624 15.7798C106.603 15.2222 107.774 14.9434 109.137 14.9434C110.017 14.9434 110.847 15.0797 111.628 15.3523C112.421 15.6249 113.071 16.0152 113.579 16.5232L112.799 18.419C112.241 17.9481 111.671 17.6074 111.089 17.3967C110.506 17.1737 109.881 17.0622 109.211 17.0622C107.886 17.0622 106.876 17.4649 106.182 18.2703C105.488 19.0633 105.141 20.197 105.141 21.6715C105.141 23.146 105.488 24.2859 106.182 25.0913C106.876 25.8967 107.886 26.2994 109.211 26.2994C109.881 26.2994 110.506 26.1941 111.089 25.9834C111.671 25.7604 112.241 25.4134 112.799 24.9426L113.579 26.8384C113.071 27.334 112.421 27.7243 111.628 28.0093C110.847 28.2819 110.017 28.4182 109.137 28.4182ZM113.971 28.2323L119.899 15.1293H121.851L127.78 28.2323H125.364L124.063 25.2028H117.669L116.387 28.2323H113.971ZM120.847 17.7127L118.487 23.307H123.245L120.885 17.7127H120.847ZM129.214 28.2323V15.1293H131.593V26.2064H137.875V28.2323H129.214ZM144.659 28.2323V15.1293H150.347C151.784 15.1293 152.893 15.4886 153.674 16.2072C154.454 16.9259 154.845 17.9295 154.845 19.2182C154.845 20.5068 154.454 21.5166 153.674 22.2477C152.893 22.9663 151.784 23.3256 150.347 23.3256H147.038V28.2323H144.659ZM147.038 21.4485H149.975C151.685 21.4485 152.54 20.705 152.54 19.2182C152.54 17.7437 151.685 17.0064 149.975 17.0064H147.038V21.4485ZM156.784 28.2323V15.1293H162.471C163.908 15.1293 165.017 15.4762 165.798 16.1701C166.579 16.8516 166.969 17.8118 166.969 19.0509C166.969 20.0297 166.715 20.8413 166.207 21.4856C165.699 22.1176 164.968 22.545 164.014 22.7681C164.646 22.9663 165.166 23.4433 165.575 24.1992L167.768 28.2323H165.147L162.88 24.0505C162.657 23.6416 162.391 23.3628 162.081 23.2141C161.783 23.0654 161.399 22.9911 160.928 22.9911H159.163V28.2323H156.784ZM159.163 21.2254H162.062C163.797 21.2254 164.664 20.5192 164.664 19.1066C164.664 17.7065 163.797 17.0064 162.062 17.0064H159.163V21.2254ZM169.525 28.2323V15.1293H171.904V28.2323H169.525ZM180.849 28.4182C179.486 28.4182 178.315 28.1456 177.336 27.6004C176.37 27.0428 175.626 26.2622 175.106 25.2586C174.585 24.2425 174.325 23.0468 174.325 21.6715C174.325 20.2961 174.585 19.1066 175.106 18.103C175.626 17.0994 176.37 16.325 177.336 15.7798C178.315 15.2222 179.486 14.9434 180.849 14.9434C181.728 14.9434 182.559 15.0797 183.339 15.3523C184.132 15.6249 184.783 16.0152 185.291 16.5232L184.51 18.419C183.953 17.9481 183.383 17.6074 182.8 17.3967C182.218 17.1737 181.592 17.0622 180.923 17.0622C179.597 17.0622 178.587 17.4649 177.894 18.2703C177.2 19.0633 176.853 20.197 176.853 21.6715C176.853 23.146 177.2 24.2859 177.894 25.0913C178.587 25.8967 179.597 26.2994 180.923 26.2994C181.592 26.2994 182.218 26.1941 182.8 25.9834C183.383 25.7604 183.953 25.4134 184.51 24.9426L185.291 26.8384C184.783 27.334 184.132 27.7243 183.339 28.0093C182.559 28.2819 181.728 28.4182 180.849 28.4182ZM187.367 28.2323V15.1293H196.084V17.025H189.653V20.6307H195.675V22.5264H189.653V26.3365H196.084V28.2323H187.367ZM203.466 28.2323V15.1293H205.845V28.2323H203.466ZM208.694 28.2323V15.1293H210.478L217.522 24.2735V15.1293H219.734V28.2323H217.968L210.905 19.0509V28.2323H208.694ZM222.597 28.2323V15.1293H227.466C229.659 15.1293 231.351 15.693 232.54 16.8206C233.742 17.9481 234.343 19.5651 234.343 21.6715C234.343 23.7655 233.742 25.3825 232.54 26.5224C231.351 27.6623 229.659 28.2323 227.466 28.2323H222.597ZM224.976 26.2622H227.317C230.341 26.2622 231.852 24.732 231.852 21.6715C231.852 18.6234 230.341 17.0994 227.317 17.0994H224.976V26.2622ZM236.754 28.2323V15.1293H245.471V17.025H239.04V20.6307H245.062V22.5264H239.04V26.3365H245.471V28.2323H236.754ZM246.21 28.2323L251.21 21.56L246.396 15.1293H249.165L252.567 19.8315L255.968 15.1293H258.756L253.942 21.56L258.923 28.2323H256.135L252.567 23.3256L249.017 28.2323H246.21Z" fill="#2E2E2E"/>
</svg>
